# xmcd
#
# Track frame offsets: 
#        150
#        12495
#        25417
#        38722
#        59007
#        70844
#        83174
#        96552
#        113120
#        126072
#        159559
#        171973
#        182205
#        205305
#        222819
#        247822
#        267384
#        284190
#        301452
#        315318
#
# Disc length: 4447 seconds
#
# Revision: 0
# Processed by: cddbd v1.5.2PL0 Copyright (c) Steve Scherf et al.
# Submitted via: ExactAudioCopy v1.1
#
DISCID=2a115d14
DTITLE=Various Artist - 1000 Klassiekers Radio 2 Vol. 04 - CD 4
DYEAR=2012
DGENRE=Pop
TTITLE0=The Sweet - Funny, Funny
TTITLE1=The Crazy World Of Arthur Brown - Fire
TTITLE2=Jefferson Airplane - Somebody To Love
TTITLE3=Barry White - Can't Get Enough Of Your Love, Babe
TTITLE4=Chuck Berry - Johnny B. Goode
TTITLE5=Johnny Cash and June Carter Cash - Jackson
TTITLE6=Adamo - Tombe La Neige
TTITLE7=Kenny Loggins - Footloose
TTITLE8=Los Lobos - La Bamba
TTITLE9=Dalida - Gigi L'Amoroso (Gigi L'Amour)
TTITLE10=Dinah Washington - Mad About The Boy
TTITLE11=Will Tura - Draai 797204
TTITLE12=Blue Oyster Cult - (Don't Fear) The Reaper
TTITLE13=Terence Trent D'Arby - Dance Little Sister
TTITLE14=Allez Allez - Allez Allez
TTITLE15=Miami Sound Machine - Dr. Beat
TTITLE16=Daryl Hall and John Oates - I Can't Go For That (No Can Do)
TTITLE17=Candi Staton - Young Hearts Run Free
TTITLE18=The O'Jays - Back Stabbers
TTITLE19=Peter Frampton - Show Me The Way (Live)
EXTD=
EXTT0=
EXTT1=
EXTT2=
EXTT3=
EXTT4=
EXTT5=
EXTT6=
EXTT7=
EXTT8=
EXTT9=
EXTT10=
EXTT11=
EXTT12=
EXTT13=
EXTT14=
EXTT15=
EXTT16=
EXTT17=
EXTT18=
EXTT19=
PLAYORDER=
